<mxfile host="app.diagrams.net" modified="2023-08-14T02:43:24.664Z" agent="Mozilla/5.0 (Macintosh; Intel Mac OS X 10_15_7) AppleWebKit/537.36 (KHTML, like Gecko) Chrome/115.0.0.0 Safari/537.36" etag="R5uUbkSNoDyGMUQErsaf" version="21.6.8" type="github">
  <diagram id="C5RBs43oDa-KdzZeNtuy" name="Page-1">
    <mxGraphModel dx="1242" dy="789" grid="1" gridSize="10" guides="1" tooltips="1" connect="1" arrows="1" fold="1" page="1" pageScale="1" pageWidth="827" pageHeight="1169" math="0" shadow="0">
      <root>
        <mxCell id="WIyWlLk6GJQsqaUBKTNV-0" />
        <mxCell id="WIyWlLk6GJQsqaUBKTNV-1" parent="WIyWlLk6GJQsqaUBKTNV-0" />
        <mxCell id="rRTnjV-w1SLP3LSvoi_K-61" style="edgeStyle=orthogonalEdgeStyle;rounded=0;orthogonalLoop=1;jettySize=auto;html=1;exitX=0.5;exitY=1;exitDx=0;exitDy=0;entryX=0.5;entryY=0;entryDx=0;entryDy=0;" edge="1" parent="WIyWlLk6GJQsqaUBKTNV-1" source="rRTnjV-w1SLP3LSvoi_K-59" target="rRTnjV-w1SLP3LSvoi_K-60">
          <mxGeometry relative="1" as="geometry" />
        </mxCell>
        <mxCell id="rRTnjV-w1SLP3LSvoi_K-59" value="程序启动" style="ellipse;whiteSpace=wrap;html=1;" vertex="1" parent="WIyWlLk6GJQsqaUBKTNV-1">
          <mxGeometry x="315" y="50" width="90" height="50" as="geometry" />
        </mxCell>
        <mxCell id="rRTnjV-w1SLP3LSvoi_K-71" style="edgeStyle=orthogonalEdgeStyle;rounded=0;orthogonalLoop=1;jettySize=auto;html=1;exitX=0.5;exitY=1;exitDx=0;exitDy=0;entryX=0.5;entryY=0;entryDx=0;entryDy=0;" edge="1" parent="WIyWlLk6GJQsqaUBKTNV-1" source="rRTnjV-w1SLP3LSvoi_K-60" target="rRTnjV-w1SLP3LSvoi_K-70">
          <mxGeometry relative="1" as="geometry" />
        </mxCell>
        <mxCell id="rRTnjV-w1SLP3LSvoi_K-60" value="初始化" style="rounded=1;whiteSpace=wrap;html=1;" vertex="1" parent="WIyWlLk6GJQsqaUBKTNV-1">
          <mxGeometry x="300" y="170" width="120" height="60" as="geometry" />
        </mxCell>
        <mxCell id="rRTnjV-w1SLP3LSvoi_K-62" value="" style="strokeWidth=1;html=1;shape=mxgraph.flowchart.annotation_2;align=left;labelPosition=right;pointerEvents=1;" vertex="1" parent="WIyWlLk6GJQsqaUBKTNV-1">
          <mxGeometry x="420" y="110" width="70" height="180" as="geometry" />
        </mxCell>
        <mxCell id="rRTnjV-w1SLP3LSvoi_K-67" value="" style="edgeStyle=orthogonalEdgeStyle;rounded=0;orthogonalLoop=1;jettySize=auto;html=1;" edge="1" parent="WIyWlLk6GJQsqaUBKTNV-1" source="rRTnjV-w1SLP3LSvoi_K-64" target="rRTnjV-w1SLP3LSvoi_K-65">
          <mxGeometry relative="1" as="geometry" />
        </mxCell>
        <mxCell id="rRTnjV-w1SLP3LSvoi_K-64" value="ADC初始化" style="rounded=1;whiteSpace=wrap;html=1;arcSize=17;" vertex="1" parent="WIyWlLk6GJQsqaUBKTNV-1">
          <mxGeometry x="490" y="80" width="120" height="60" as="geometry" />
        </mxCell>
        <mxCell id="rRTnjV-w1SLP3LSvoi_K-68" value="" style="edgeStyle=orthogonalEdgeStyle;rounded=0;orthogonalLoop=1;jettySize=auto;html=1;" edge="1" parent="WIyWlLk6GJQsqaUBKTNV-1" source="rRTnjV-w1SLP3LSvoi_K-65" target="rRTnjV-w1SLP3LSvoi_K-66">
          <mxGeometry relative="1" as="geometry" />
        </mxCell>
        <mxCell id="rRTnjV-w1SLP3LSvoi_K-65" value="磁盘挂载" style="rounded=1;whiteSpace=wrap;html=1;arcSize=17;" vertex="1" parent="WIyWlLk6GJQsqaUBKTNV-1">
          <mxGeometry x="490" y="170" width="120" height="60" as="geometry" />
        </mxCell>
        <mxCell id="rRTnjV-w1SLP3LSvoi_K-111" value="" style="edgeStyle=orthogonalEdgeStyle;rounded=0;orthogonalLoop=1;jettySize=auto;html=1;" edge="1" parent="WIyWlLk6GJQsqaUBKTNV-1" source="rRTnjV-w1SLP3LSvoi_K-66" target="rRTnjV-w1SLP3LSvoi_K-110">
          <mxGeometry relative="1" as="geometry" />
        </mxCell>
        <mxCell id="rRTnjV-w1SLP3LSvoi_K-66" value="时钟初始化" style="rounded=1;whiteSpace=wrap;html=1;arcSize=17;" vertex="1" parent="WIyWlLk6GJQsqaUBKTNV-1">
          <mxGeometry x="490" y="260" width="120" height="60" as="geometry" />
        </mxCell>
        <mxCell id="rRTnjV-w1SLP3LSvoi_K-73" value="" style="edgeStyle=orthogonalEdgeStyle;rounded=0;orthogonalLoop=1;jettySize=auto;html=1;" edge="1" parent="WIyWlLk6GJQsqaUBKTNV-1" source="rRTnjV-w1SLP3LSvoi_K-70" target="rRTnjV-w1SLP3LSvoi_K-72">
          <mxGeometry relative="1" as="geometry" />
        </mxCell>
        <mxCell id="rRTnjV-w1SLP3LSvoi_K-74" value="成功" style="edgeLabel;html=1;align=center;verticalAlign=middle;resizable=0;points=[];" vertex="1" connectable="0" parent="rRTnjV-w1SLP3LSvoi_K-73">
          <mxGeometry x="-0.2571" y="-2" relative="1" as="geometry">
            <mxPoint as="offset" />
          </mxGeometry>
        </mxCell>
        <mxCell id="rRTnjV-w1SLP3LSvoi_K-76" style="edgeStyle=orthogonalEdgeStyle;rounded=0;orthogonalLoop=1;jettySize=auto;html=1;exitX=0;exitY=0.5;exitDx=0;exitDy=0;entryX=0.5;entryY=0;entryDx=0;entryDy=0;" edge="1" parent="WIyWlLk6GJQsqaUBKTNV-1" source="rRTnjV-w1SLP3LSvoi_K-70" target="rRTnjV-w1SLP3LSvoi_K-75">
          <mxGeometry relative="1" as="geometry" />
        </mxCell>
        <mxCell id="rRTnjV-w1SLP3LSvoi_K-77" value="失败" style="edgeLabel;html=1;align=center;verticalAlign=middle;resizable=0;points=[];" vertex="1" connectable="0" parent="rRTnjV-w1SLP3LSvoi_K-76">
          <mxGeometry x="0.5884" y="-3" relative="1" as="geometry">
            <mxPoint x="3" y="9" as="offset" />
          </mxGeometry>
        </mxCell>
        <mxCell id="rRTnjV-w1SLP3LSvoi_K-70" value="初始化状态" style="rhombus;whiteSpace=wrap;html=1;" vertex="1" parent="WIyWlLk6GJQsqaUBKTNV-1">
          <mxGeometry x="320" y="320" width="80" height="80" as="geometry" />
        </mxCell>
        <mxCell id="rRTnjV-w1SLP3LSvoi_K-79" value="" style="edgeStyle=orthogonalEdgeStyle;rounded=0;orthogonalLoop=1;jettySize=auto;html=1;" edge="1" parent="WIyWlLk6GJQsqaUBKTNV-1" source="rRTnjV-w1SLP3LSvoi_K-72">
          <mxGeometry relative="1" as="geometry">
            <mxPoint x="690" y="500" as="targetPoint" />
          </mxGeometry>
        </mxCell>
        <mxCell id="rRTnjV-w1SLP3LSvoi_K-84" value="写入进程" style="edgeLabel;html=1;align=center;verticalAlign=middle;resizable=0;points=[];" vertex="1" connectable="0" parent="rRTnjV-w1SLP3LSvoi_K-79">
          <mxGeometry x="-0.025" y="2" relative="1" as="geometry">
            <mxPoint as="offset" />
          </mxGeometry>
        </mxCell>
        <mxCell id="rRTnjV-w1SLP3LSvoi_K-81" value="" style="edgeStyle=orthogonalEdgeStyle;rounded=0;orthogonalLoop=1;jettySize=auto;html=1;entryX=0.5;entryY=0;entryDx=0;entryDy=0;" edge="1" parent="WIyWlLk6GJQsqaUBKTNV-1" source="rRTnjV-w1SLP3LSvoi_K-72" target="rRTnjV-w1SLP3LSvoi_K-86">
          <mxGeometry relative="1" as="geometry">
            <mxPoint x="360" y="610" as="targetPoint" />
          </mxGeometry>
        </mxCell>
        <mxCell id="rRTnjV-w1SLP3LSvoi_K-85" value="读取进程" style="edgeLabel;html=1;align=center;verticalAlign=middle;resizable=0;points=[];" vertex="1" connectable="0" parent="rRTnjV-w1SLP3LSvoi_K-81">
          <mxGeometry x="-0.2" y="-1" relative="1" as="geometry">
            <mxPoint as="offset" />
          </mxGeometry>
        </mxCell>
        <mxCell id="rRTnjV-w1SLP3LSvoi_K-72" value="调度函数挂载" style="rounded=1;whiteSpace=wrap;html=1;" vertex="1" parent="WIyWlLk6GJQsqaUBKTNV-1">
          <mxGeometry x="300" y="470" width="120" height="60" as="geometry" />
        </mxCell>
        <mxCell id="rRTnjV-w1SLP3LSvoi_K-75" value="程序退出" style="ellipse;whiteSpace=wrap;html=1;" vertex="1" parent="WIyWlLk6GJQsqaUBKTNV-1">
          <mxGeometry x="110" y="475" width="90" height="50" as="geometry" />
        </mxCell>
        <mxCell id="rRTnjV-w1SLP3LSvoi_K-90" value="" style="edgeStyle=orthogonalEdgeStyle;rounded=0;orthogonalLoop=1;jettySize=auto;html=1;" edge="1" parent="WIyWlLk6GJQsqaUBKTNV-1" source="rRTnjV-w1SLP3LSvoi_K-86" target="rRTnjV-w1SLP3LSvoi_K-89">
          <mxGeometry relative="1" as="geometry" />
        </mxCell>
        <mxCell id="rRTnjV-w1SLP3LSvoi_K-95" value="正常" style="edgeLabel;html=1;align=center;verticalAlign=middle;resizable=0;points=[];" vertex="1" connectable="0" parent="rRTnjV-w1SLP3LSvoi_K-90">
          <mxGeometry x="-0.3" y="4" relative="1" as="geometry">
            <mxPoint x="-4" as="offset" />
          </mxGeometry>
        </mxCell>
        <mxCell id="rRTnjV-w1SLP3LSvoi_K-93" style="edgeStyle=orthogonalEdgeStyle;rounded=0;orthogonalLoop=1;jettySize=auto;html=1;entryX=0.5;entryY=1;entryDx=0;entryDy=0;" edge="1" parent="WIyWlLk6GJQsqaUBKTNV-1" source="rRTnjV-w1SLP3LSvoi_K-86" target="rRTnjV-w1SLP3LSvoi_K-75">
          <mxGeometry relative="1" as="geometry" />
        </mxCell>
        <mxCell id="rRTnjV-w1SLP3LSvoi_K-94" value="异常" style="edgeLabel;html=1;align=center;verticalAlign=middle;resizable=0;points=[];" vertex="1" connectable="0" parent="rRTnjV-w1SLP3LSvoi_K-93">
          <mxGeometry x="-0.4483" relative="1" as="geometry">
            <mxPoint as="offset" />
          </mxGeometry>
        </mxCell>
        <mxCell id="rRTnjV-w1SLP3LSvoi_K-86" value="ADC 正常" style="rhombus;whiteSpace=wrap;html=1;" vertex="1" parent="WIyWlLk6GJQsqaUBKTNV-1">
          <mxGeometry x="320" y="640" width="80" height="80" as="geometry" />
        </mxCell>
        <mxCell id="rRTnjV-w1SLP3LSvoi_K-102" style="edgeStyle=orthogonalEdgeStyle;rounded=0;orthogonalLoop=1;jettySize=auto;html=1;exitX=0.5;exitY=1;exitDx=0;exitDy=0;" edge="1" parent="WIyWlLk6GJQsqaUBKTNV-1" source="rRTnjV-w1SLP3LSvoi_K-89" target="rRTnjV-w1SLP3LSvoi_K-101">
          <mxGeometry relative="1" as="geometry" />
        </mxCell>
        <mxCell id="rRTnjV-w1SLP3LSvoi_K-89" value="ADC 数据处理" style="rounded=1;whiteSpace=wrap;html=1;" vertex="1" parent="WIyWlLk6GJQsqaUBKTNV-1">
          <mxGeometry x="300" y="780" width="120" height="60" as="geometry" />
        </mxCell>
        <mxCell id="rRTnjV-w1SLP3LSvoi_K-107" value="" style="edgeStyle=orthogonalEdgeStyle;rounded=0;orthogonalLoop=1;jettySize=auto;html=1;" edge="1" parent="WIyWlLk6GJQsqaUBKTNV-1" source="rRTnjV-w1SLP3LSvoi_K-91" target="rRTnjV-w1SLP3LSvoi_K-106">
          <mxGeometry relative="1" as="geometry" />
        </mxCell>
        <mxCell id="rRTnjV-w1SLP3LSvoi_K-91" value="指针后移13 位" style="whiteSpace=wrap;html=1;rounded=1;" vertex="1" parent="WIyWlLk6GJQsqaUBKTNV-1">
          <mxGeometry x="300" y="1000" width="120" height="60" as="geometry" />
        </mxCell>
        <mxCell id="rRTnjV-w1SLP3LSvoi_K-103" style="edgeStyle=orthogonalEdgeStyle;rounded=0;orthogonalLoop=1;jettySize=auto;html=1;exitX=0.5;exitY=1;exitDx=0;exitDy=0;entryX=0.5;entryY=0;entryDx=0;entryDy=0;" edge="1" parent="WIyWlLk6GJQsqaUBKTNV-1" source="rRTnjV-w1SLP3LSvoi_K-101" target="rRTnjV-w1SLP3LSvoi_K-91">
          <mxGeometry relative="1" as="geometry" />
        </mxCell>
        <mxCell id="rRTnjV-w1SLP3LSvoi_K-101" value="写入缓冲数组" style="rounded=1;whiteSpace=wrap;html=1;" vertex="1" parent="WIyWlLk6GJQsqaUBKTNV-1">
          <mxGeometry x="300" y="890" width="120" height="60" as="geometry" />
        </mxCell>
        <mxCell id="rRTnjV-w1SLP3LSvoi_K-108" style="edgeStyle=orthogonalEdgeStyle;rounded=0;orthogonalLoop=1;jettySize=auto;html=1;exitX=1;exitY=0.5;exitDx=0;exitDy=0;entryX=1;entryY=0.5;entryDx=0;entryDy=0;" edge="1" parent="WIyWlLk6GJQsqaUBKTNV-1" source="rRTnjV-w1SLP3LSvoi_K-106" target="rRTnjV-w1SLP3LSvoi_K-86">
          <mxGeometry relative="1" as="geometry">
            <Array as="points">
              <mxPoint x="510" y="1170" />
              <mxPoint x="510" y="680" />
            </Array>
          </mxGeometry>
        </mxCell>
        <mxCell id="rRTnjV-w1SLP3LSvoi_K-109" value="足够" style="edgeLabel;html=1;align=center;verticalAlign=middle;resizable=0;points=[];" vertex="1" connectable="0" parent="rRTnjV-w1SLP3LSvoi_K-108">
          <mxGeometry x="-0.8563" y="-1" relative="1" as="geometry">
            <mxPoint as="offset" />
          </mxGeometry>
        </mxCell>
        <mxCell id="rRTnjV-w1SLP3LSvoi_K-112" style="edgeStyle=orthogonalEdgeStyle;rounded=0;orthogonalLoop=1;jettySize=auto;html=1;exitX=0;exitY=0.5;exitDx=0;exitDy=0;" edge="1" parent="WIyWlLk6GJQsqaUBKTNV-1" source="rRTnjV-w1SLP3LSvoi_K-106" target="rRTnjV-w1SLP3LSvoi_K-75">
          <mxGeometry relative="1" as="geometry" />
        </mxCell>
        <mxCell id="rRTnjV-w1SLP3LSvoi_K-113" value="不足" style="edgeLabel;html=1;align=center;verticalAlign=middle;resizable=0;points=[];" vertex="1" connectable="0" parent="rRTnjV-w1SLP3LSvoi_K-112">
          <mxGeometry x="-0.8395" y="-1" relative="1" as="geometry">
            <mxPoint as="offset" />
          </mxGeometry>
        </mxCell>
        <mxCell id="rRTnjV-w1SLP3LSvoi_K-106" value="缓冲区空间" style="rhombus;whiteSpace=wrap;html=1;rounded=1;" vertex="1" parent="WIyWlLk6GJQsqaUBKTNV-1">
          <mxGeometry x="320" y="1130" width="80" height="80" as="geometry" />
        </mxCell>
        <mxCell id="rRTnjV-w1SLP3LSvoi_K-110" value="1ms &lt;br&gt;（中断函数&lt;br&gt;执行间隔）" style="shape=parallelogram;html=1;strokeWidth=1;perimeter=parallelogramPerimeter;whiteSpace=wrap;rounded=1;arcSize=12;size=0.23;" vertex="1" parent="WIyWlLk6GJQsqaUBKTNV-1">
          <mxGeometry x="690" y="260" width="100" height="60" as="geometry" />
        </mxCell>
        <mxCell id="rRTnjV-w1SLP3LSvoi_K-116" value="" style="edgeStyle=orthogonalEdgeStyle;rounded=0;orthogonalLoop=1;jettySize=auto;html=1;" edge="1" parent="WIyWlLk6GJQsqaUBKTNV-1" source="rRTnjV-w1SLP3LSvoi_K-114">
          <mxGeometry relative="1" as="geometry">
            <mxPoint x="730" y="640" as="targetPoint" />
          </mxGeometry>
        </mxCell>
        <mxCell id="rRTnjV-w1SLP3LSvoi_K-117" value="大于写入批次" style="edgeLabel;html=1;align=center;verticalAlign=middle;resizable=0;points=[];" vertex="1" connectable="0" parent="rRTnjV-w1SLP3LSvoi_K-116">
          <mxGeometry x="-0.2889" y="-1" relative="1" as="geometry">
            <mxPoint as="offset" />
          </mxGeometry>
        </mxCell>
        <mxCell id="rRTnjV-w1SLP3LSvoi_K-121" style="edgeStyle=orthogonalEdgeStyle;rounded=0;orthogonalLoop=1;jettySize=auto;html=1;exitX=1;exitY=0.5;exitDx=0;exitDy=0;entryX=0.5;entryY=0;entryDx=0;entryDy=0;" edge="1" parent="WIyWlLk6GJQsqaUBKTNV-1" source="rRTnjV-w1SLP3LSvoi_K-114" target="rRTnjV-w1SLP3LSvoi_K-114">
          <mxGeometry relative="1" as="geometry">
            <mxPoint x="680" y="500" as="targetPoint" />
            <Array as="points">
              <mxPoint x="790" y="500" />
              <mxPoint x="790" y="360" />
              <mxPoint x="730" y="360" />
            </Array>
          </mxGeometry>
        </mxCell>
        <mxCell id="rRTnjV-w1SLP3LSvoi_K-122" value="小于写入批次&lt;br&gt;，继续等待" style="edgeLabel;html=1;align=center;verticalAlign=middle;resizable=0;points=[];" vertex="1" connectable="0" parent="rRTnjV-w1SLP3LSvoi_K-121">
          <mxGeometry x="-0.425" y="3" relative="1" as="geometry">
            <mxPoint as="offset" />
          </mxGeometry>
        </mxCell>
        <mxCell id="rRTnjV-w1SLP3LSvoi_K-114" value="指针&amp;gt;&lt;br&gt;batchSize" style="rhombus;whiteSpace=wrap;html=1;" vertex="1" parent="WIyWlLk6GJQsqaUBKTNV-1">
          <mxGeometry x="690" y="460" width="80" height="80" as="geometry" />
        </mxCell>
        <mxCell id="rRTnjV-w1SLP3LSvoi_K-125" value="" style="edgeStyle=orthogonalEdgeStyle;rounded=0;orthogonalLoop=1;jettySize=auto;html=1;" edge="1" parent="WIyWlLk6GJQsqaUBKTNV-1" source="rRTnjV-w1SLP3LSvoi_K-123" target="rRTnjV-w1SLP3LSvoi_K-124">
          <mxGeometry relative="1" as="geometry" />
        </mxCell>
        <mxCell id="rRTnjV-w1SLP3LSvoi_K-126" value="否" style="edgeLabel;html=1;align=center;verticalAlign=middle;resizable=0;points=[];" vertex="1" connectable="0" parent="rRTnjV-w1SLP3LSvoi_K-125">
          <mxGeometry x="-0.3" relative="1" as="geometry">
            <mxPoint as="offset" />
          </mxGeometry>
        </mxCell>
        <mxCell id="rRTnjV-w1SLP3LSvoi_K-127" style="edgeStyle=orthogonalEdgeStyle;rounded=0;orthogonalLoop=1;jettySize=auto;html=1;entryX=1;entryY=0.5;entryDx=0;entryDy=0;" edge="1" parent="WIyWlLk6GJQsqaUBKTNV-1" source="rRTnjV-w1SLP3LSvoi_K-123" target="rRTnjV-w1SLP3LSvoi_K-124">
          <mxGeometry relative="1" as="geometry">
            <Array as="points">
              <mxPoint x="810" y="680" />
              <mxPoint x="810" y="810" />
            </Array>
          </mxGeometry>
        </mxCell>
        <mxCell id="rRTnjV-w1SLP3LSvoi_K-128" value="是" style="edgeLabel;html=1;align=center;verticalAlign=middle;resizable=0;points=[];" vertex="1" connectable="0" parent="rRTnjV-w1SLP3LSvoi_K-127">
          <mxGeometry x="0.0421" y="4" relative="1" as="geometry">
            <mxPoint x="-4" y="2" as="offset" />
          </mxGeometry>
        </mxCell>
        <mxCell id="rRTnjV-w1SLP3LSvoi_K-123" value="文件数量&amp;gt;&lt;br&gt;maxFile" style="rhombus;whiteSpace=wrap;html=1;" vertex="1" parent="WIyWlLk6GJQsqaUBKTNV-1">
          <mxGeometry x="690" y="640" width="80" height="80" as="geometry" />
        </mxCell>
        <mxCell id="rRTnjV-w1SLP3LSvoi_K-130" value="" style="edgeStyle=orthogonalEdgeStyle;rounded=0;orthogonalLoop=1;jettySize=auto;html=1;" edge="1" parent="WIyWlLk6GJQsqaUBKTNV-1" source="rRTnjV-w1SLP3LSvoi_K-124" target="rRTnjV-w1SLP3LSvoi_K-129">
          <mxGeometry relative="1" as="geometry" />
        </mxCell>
        <mxCell id="rRTnjV-w1SLP3LSvoi_K-124" value="文件实例生成/覆盖写" style="rounded=1;whiteSpace=wrap;html=1;" vertex="1" parent="WIyWlLk6GJQsqaUBKTNV-1">
          <mxGeometry x="670" y="780" width="120" height="60" as="geometry" />
        </mxCell>
        <mxCell id="rRTnjV-w1SLP3LSvoi_K-136" value="" style="edgeStyle=orthogonalEdgeStyle;rounded=0;orthogonalLoop=1;jettySize=auto;html=1;" edge="1" parent="WIyWlLk6GJQsqaUBKTNV-1" source="rRTnjV-w1SLP3LSvoi_K-129" target="rRTnjV-w1SLP3LSvoi_K-135">
          <mxGeometry relative="1" as="geometry" />
        </mxCell>
        <mxCell id="rRTnjV-w1SLP3LSvoi_K-129" value="缓冲区数据处理" style="rounded=1;whiteSpace=wrap;html=1;" vertex="1" parent="WIyWlLk6GJQsqaUBKTNV-1">
          <mxGeometry x="670" y="890" width="120" height="60" as="geometry" />
        </mxCell>
        <mxCell id="rRTnjV-w1SLP3LSvoi_K-138" value="" style="edgeStyle=orthogonalEdgeStyle;rounded=0;orthogonalLoop=1;jettySize=auto;html=1;" edge="1" parent="WIyWlLk6GJQsqaUBKTNV-1" source="rRTnjV-w1SLP3LSvoi_K-135" target="rRTnjV-w1SLP3LSvoi_K-137">
          <mxGeometry relative="1" as="geometry" />
        </mxCell>
        <mxCell id="rRTnjV-w1SLP3LSvoi_K-135" value="写入 CSV 文件" style="rounded=1;whiteSpace=wrap;html=1;" vertex="1" parent="WIyWlLk6GJQsqaUBKTNV-1">
          <mxGeometry x="670" y="1000" width="120" height="60" as="geometry" />
        </mxCell>
        <mxCell id="rRTnjV-w1SLP3LSvoi_K-139" style="edgeStyle=orthogonalEdgeStyle;rounded=0;orthogonalLoop=1;jettySize=auto;html=1;exitX=0;exitY=0.5;exitDx=0;exitDy=0;" edge="1" parent="WIyWlLk6GJQsqaUBKTNV-1" source="rRTnjV-w1SLP3LSvoi_K-137">
          <mxGeometry relative="1" as="geometry">
            <mxPoint x="630" y="500" as="targetPoint" />
          </mxGeometry>
        </mxCell>
        <mxCell id="rRTnjV-w1SLP3LSvoi_K-140" value="写入失败" style="edgeLabel;html=1;align=center;verticalAlign=middle;resizable=0;points=[];" vertex="1" connectable="0" parent="rRTnjV-w1SLP3LSvoi_K-139">
          <mxGeometry x="-0.9083" y="1" relative="1" as="geometry">
            <mxPoint x="-27" y="-31" as="offset" />
          </mxGeometry>
        </mxCell>
        <mxCell id="rRTnjV-w1SLP3LSvoi_K-142" value="" style="edgeStyle=orthogonalEdgeStyle;rounded=0;orthogonalLoop=1;jettySize=auto;html=1;" edge="1" parent="WIyWlLk6GJQsqaUBKTNV-1" source="rRTnjV-w1SLP3LSvoi_K-137" target="rRTnjV-w1SLP3LSvoi_K-141">
          <mxGeometry relative="1" as="geometry" />
        </mxCell>
        <mxCell id="rRTnjV-w1SLP3LSvoi_K-145" value="写入成功" style="edgeLabel;html=1;align=center;verticalAlign=middle;resizable=0;points=[];" vertex="1" connectable="0" parent="rRTnjV-w1SLP3LSvoi_K-142">
          <mxGeometry x="-0.1111" y="2" relative="1" as="geometry">
            <mxPoint as="offset" />
          </mxGeometry>
        </mxCell>
        <mxCell id="rRTnjV-w1SLP3LSvoi_K-137" value="文件状态" style="rhombus;whiteSpace=wrap;html=1;rounded=1;" vertex="1" parent="WIyWlLk6GJQsqaUBKTNV-1">
          <mxGeometry x="690" y="1120" width="80" height="80" as="geometry" />
        </mxCell>
        <mxCell id="rRTnjV-w1SLP3LSvoi_K-146" style="edgeStyle=orthogonalEdgeStyle;rounded=0;orthogonalLoop=1;jettySize=auto;html=1;exitX=0.5;exitY=1;exitDx=0;exitDy=0;" edge="1" parent="WIyWlLk6GJQsqaUBKTNV-1" source="rRTnjV-w1SLP3LSvoi_K-147">
          <mxGeometry relative="1" as="geometry">
            <mxPoint x="600" y="500" as="targetPoint" />
            <Array as="points">
              <mxPoint x="601" y="340" />
            </Array>
          </mxGeometry>
        </mxCell>
        <mxCell id="rRTnjV-w1SLP3LSvoi_K-149" style="edgeStyle=orthogonalEdgeStyle;rounded=0;orthogonalLoop=1;jettySize=auto;html=1;exitX=0.5;exitY=0;exitDx=0;exitDy=0;entryX=0.5;entryY=1;entryDx=0;entryDy=0;" edge="1" parent="WIyWlLk6GJQsqaUBKTNV-1" source="rRTnjV-w1SLP3LSvoi_K-141" target="rRTnjV-w1SLP3LSvoi_K-147">
          <mxGeometry relative="1" as="geometry" />
        </mxCell>
        <mxCell id="rRTnjV-w1SLP3LSvoi_K-141" value="缓冲区数据清理" style="whiteSpace=wrap;html=1;rounded=1;" vertex="1" parent="WIyWlLk6GJQsqaUBKTNV-1">
          <mxGeometry x="880" y="1130" width="120" height="60" as="geometry" />
        </mxCell>
        <mxCell id="rRTnjV-w1SLP3LSvoi_K-147" value="指针归 0" style="whiteSpace=wrap;html=1;rounded=1;" vertex="1" parent="WIyWlLk6GJQsqaUBKTNV-1">
          <mxGeometry x="880" y="1000" width="120" height="60" as="geometry" />
        </mxCell>
      </root>
    </mxGraphModel>
  </diagram>
</mxfile>
